<svg width="164" height="164" viewBox="0 0 164 164" fill="none" xmlns="http://www.w3.org/2000/svg">
<g clip-path="url(#clip0_90_4)">
<path d="M107.625 82H56.375C53.6574 82.0027 51.0518 83.0835 49.1302 85.0051C47.2085 86.9268 46.1277 89.5324 46.125 92.25V123C46.1277 125.718 47.2085 128.323 49.1302 130.245C51.0518 132.167 53.6574 133.247 56.375 133.25H76.875V143.5H61.5V153.75H102.5V143.5H87.125V133.25H107.625C110.343 133.247 112.948 132.167 114.87 130.245C116.792 128.323 117.872 125.718 117.875 123V92.25C117.872 89.5324 116.792 86.9268 114.87 85.0051C112.948 83.0835 110.343 82.0027 107.625 82ZM56.375 123V92.25H107.625L107.635 123H56.375Z" fill="#777777"/>
<path d="M132.338 51.8855C130.098 40.1757 123.847 29.613 114.659 22.0158C105.471 14.4186 93.922 10.2622 82 10.2622C70.078 10.2622 58.529 14.4186 49.3412 22.0158C40.1534 29.613 33.9016 40.1757 31.6622 51.8855C22.4269 53.5293 14.1129 58.4975 8.29008 65.852C2.46728 73.2066 -0.46138 82.4385 0.0570714 91.8047C0.575523 101.171 4.5052 110.023 11.1041 116.69C17.7031 123.357 26.5146 127.377 35.875 127.992V117.742C28.826 117.096 22.2789 113.819 17.537 108.563C12.795 103.308 10.2061 96.4593 10.2856 89.3812C10.3651 82.3032 13.1071 75.5146 17.9659 70.367C22.8246 65.2193 29.4437 62.0902 36.5054 61.6025L40.795 61.3155L41.2562 57.0412C42.3605 47.0071 47.1287 37.7333 54.6471 30.9969C62.1655 24.2606 71.9052 20.5355 82 20.5355C92.0947 20.5355 101.834 24.2606 109.353 30.9969C116.871 37.7333 121.639 47.0071 122.744 57.0412L123.205 61.3155L127.495 61.6025C134.562 62.0825 141.19 65.2086 146.055 70.3575C150.921 75.5064 153.667 82.2998 153.746 89.3835C153.826 96.4671 151.233 103.321 146.484 108.577C141.736 113.834 135.18 117.108 128.125 117.747V127.997C137.489 127.387 146.306 123.369 152.91 116.701C159.513 110.034 163.445 101.178 163.964 91.8083C164.483 82.4384 161.551 73.2031 155.724 65.8473C149.897 58.4916 141.578 53.5248 132.338 51.8855Z" fill="#777777"/>
</g>
<defs>
<clipPath id="clip0_90_4">
<rect width="164" height="164" fill="white"/>
</clipPath>
</defs>
</svg>
