<svg width="164" height="164" viewBox="0 0 164 164" fill="none" xmlns="http://www.w3.org/2000/svg">
<path d="M53.3004 106.562C52.688 106.562 52.0755 106.652 51.4913 106.841C48.1703 107.919 44.6776 108.609 41.0004 108.609C37.3232 108.609 33.8305 107.919 30.507 106.841C29.9227 106.652 29.3129 106.562 28.7004 106.562C12.7975 106.562 -0.0841485 119.478 0.000413966 135.377C0.036289 142.096 5.56873 147.5 12.3004 147.5H69.7004C76.4321 147.5 81.9645 142.096 82.0004 135.377C82.085 119.478 69.2033 106.562 53.3004 106.562ZM41.0004 98.375C54.5868 98.375 65.6004 87.3782 65.6004 73.8125C65.6004 60.2468 54.5868 49.25 41.0004 49.25C27.414 49.25 16.4004 60.2468 16.4004 73.8125C16.4004 87.3782 27.414 98.375 41.0004 98.375ZM151.7 16.5H53.3004C46.5175 16.5 41.0004 22.1929 41.0004 29.1881V41.0625C47.0018 41.0625 52.5573 42.7972 57.4004 45.6168V32.875H147.6V106.562H131.2V90.1875H98.4004V106.562H78.8639C83.7583 110.833 87.3509 116.472 89.0345 122.938H151.7C158.483 122.938 164 117.245 164 110.249V29.1881C164 22.1929 158.483 16.5 151.7 16.5Z" fill="#777777"/>
</svg>
