<svg width="164" height="164" viewBox="0 0 164 164" fill="none" xmlns="http://www.w3.org/2000/svg">
<path d="M138.375 23.0625H25.625C22.2269 23.0625 18.968 24.4124 16.5652 26.8152C14.1624 29.218 12.8125 32.4769 12.8125 35.875V102.5C12.8125 105.898 14.1624 109.157 16.5652 111.56C18.968 113.963 22.2269 115.312 25.625 115.312H138.375C141.773 115.312 145.032 113.963 147.435 111.56C149.838 109.157 151.188 105.898 151.188 102.5V35.875C151.188 32.4769 149.838 29.218 147.435 26.8152C145.032 24.4124 141.773 23.0625 138.375 23.0625ZM135.812 99.9375H28.1875V38.4375H135.812V99.9375ZM151.188 133.25C151.187 135.289 150.378 137.244 148.936 138.686C147.494 140.128 145.539 140.938 143.5 140.938H20.5C18.4611 140.938 16.5058 140.128 15.0641 138.686C13.6224 137.244 12.8125 135.289 12.8125 133.25C12.8125 131.211 13.6224 129.256 15.0641 127.814C16.5058 126.372 18.4611 125.562 20.5 125.562H143.5C145.539 125.562 147.494 126.372 148.936 127.814C150.378 129.256 151.188 131.211 151.188 133.25ZM66.625 82V56.375C66.6245 55.0025 66.9915 53.655 67.6878 52.4722C68.3841 51.2895 69.3844 50.3148 70.5847 49.6492C71.785 48.9837 73.1416 48.6516 74.5136 48.6875C75.8856 48.7235 77.223 49.126 78.3869 49.8534L98.8869 62.6659C99.9937 63.3567 100.906 64.3178 101.539 65.4587C102.172 66.5996 102.504 67.8828 102.504 69.1875C102.504 70.4922 102.172 71.7754 101.539 72.9163C100.906 74.0572 99.9937 75.0183 98.8869 75.7091L78.3869 88.5216C77.223 89.249 75.8856 89.6515 74.5136 89.6875C73.1416 89.7234 71.785 89.3913 70.5847 88.7258C69.3844 88.0602 68.3841 87.0855 67.6878 85.9028C66.9915 84.72 66.6245 83.3725 66.625 82Z" fill="#777777"/>
</svg>
